<svg xmlns="http://www.w3.org/2000/svg" width="414" height="414.110" viewBox="0 0 414 414.110" fill="none">
  <path d="M 131.875 414.11 C 130.506 413.787 126.892 413.73 125.265 413.609 C 121.698 413.344 118.144 412.939 114.609 412.397 C 95.762 409.634 77.731 402.845 61.74 392.493 C 31.382 372.913 10.156 341.962 2.826 306.587 C -0.728 289.771 0.079 272.948 0.078 255.857 L 0.079 203.974 L 0.072 155.55 C 0.069 139.577 -0.543 125.924 2.301 110.062 C 5.499 92.576 12.152 75.903 21.871 61.018 C 41.459 31.064 72.156 10.129 107.194 2.829 C 124.413 -0.758 140.111 0.086 157.55 0.087 L 209.478 0.088 L 258.222 0.085 C 274.538 0.085 287.899 -0.609 304.163 2.293 C 322.018 5.584 339.016 12.479 354.118 22.557 C 382.735 41.693 402.965 71.036 410.671 104.589 C 411.704 109.119 412.491 113.701 413.027 118.317 C 413.31 120.981 413.434 124.876 414 127.374 L 414 139.106 L 167.026 139.094 L 84.325 139.095 L 57.045 139.094 C 51.909 139.094 46.383 138.995 41.268 139.161 C 41.431 152.469 46.354 165.486 55.921 174.905 C 62.117 181.075 70.115 185.113 78.759 186.435 C 82.292 186.955 86.412 186.805 90.027 186.804 L 105.555 186.797 L 159.278 186.796 L 305.585 186.799 L 353.938 186.798 C 361.652 186.797 370.187 186.581 377.802 186.795 C 379.491 192.715 380.99 198.67 382.685 204.575 C 386.184 216.771 390.051 228.86 394.284 240.821 C 397.273 249.187 400.463 257.479 403.845 265.695 C 405.345 269.311 406.895 272.905 408.491 276.481 C 409.9 279.604 412.683 285.055 413.616 288.232 C 413.895 289.177 413.138 294.969 412.956 296.452 C 410.857 313.32 405.532 329.626 397.269 344.48 C 380.092 375.477 351.41 398.474 317.419 408.498 C 309.067 410.88 302.539 412.235 293.862 413.144 C 291.677 413.386 289.487 413.576 287.293 413.712 C 285.745 413.803 283.516 413.823 282.054 414.11 L 131.875 414.11 Z M 113.23 194.056 C 113.405 207.736 118.083 220.173 127.938 229.845 C 138.69 240.399 148.598 241.648 162.658 241.648 L 176.384 241.642 L 224.631 241.64 L 330.272 241.638 C 349.46 241.64 369.073 241.851 388.235 241.574 C 384.624 230.935 381.22 220.228 378.025 209.457 C 377.036 206.08 376.079 202.694 375.153 199.3 C 374.736 197.786 374.194 195.392 373.63 194.051 L 113.23 194.056 Z M 203.399 248.901 C 204.256 263.933 208.117 275.51 219.498 285.979 C 232.125 297.595 243.84 296.424 259.42 296.409 L 293.658 296.401 L 370.246 296.401 C 383.291 296.401 396.788 296.573 409.803 296.377 L 410.798 296.333 C 411.231 295.608 409.522 293.011 409.051 292.022 C 407.034 287.795 405.07 283.542 403.161 279.266 C 398.566 268.868 395.004 259.245 390.834 248.823 C 381.578 248.729 372.323 248.703 363.07 248.75 L 315.455 248.75 L 205.397 248.762 L 203.399 248.901 Z" fill="currentColor" fill-rule="nonzero"></path>
</svg>