<svg xmlns="http://www.w3.org/2000/svg" width="594.929" height="67.307" viewBox="0 0 594.929 67.307" fill="none">
  <path d="M 35.425 67.307 C 27.946 67.307 21.825 66.808 17.061 65.811 C 12.352 64.814 8.668 63.457 6.009 61.74 C 3.405 59.967 1.688 57.89 0.857 55.507 C 0.082 53.07 -0.168 50.466 0.109 47.697 L 3.599 19.61 C 3.932 16.785 4.79 14.182 6.175 11.799 C 7.616 9.417 9.859 7.368 12.906 5.65 C 15.953 3.878 19.969 2.493 24.955 1.496 C 29.94 0.499 36.173 0 43.651 0 C 51.13 0 57.251 0.499 62.015 1.496 C 66.779 2.493 70.463 3.878 73.067 5.65 C 75.67 7.368 77.388 9.417 78.219 11.799 C 79.05 14.182 79.299 16.785 78.967 19.61 L 78.302 25.676 L 61.018 25.676 L 61.6 20.774 C 61.821 19.444 61.738 18.142 61.35 16.868 C 61.018 15.539 60.159 14.375 58.774 13.378 C 57.445 12.381 55.478 11.606 52.875 11.052 C 50.271 10.442 46.809 10.138 42.488 10.138 C 38.167 10.138 34.621 10.442 31.852 11.052 C 29.082 11.606 26.894 12.381 25.287 13.378 C 23.681 14.375 22.545 15.539 21.88 16.868 C 21.271 18.142 20.855 19.444 20.634 20.774 L 17.559 46.533 C 17.393 47.863 17.476 49.192 17.809 50.522 C 18.141 51.796 18.972 52.932 20.301 53.929 C 21.686 54.926 23.681 55.729 26.284 56.338 C 28.888 56.892 32.35 57.169 36.671 57.169 C 40.992 57.169 44.537 56.892 47.307 56.338 C 50.077 55.729 52.238 54.926 53.789 53.929 C 55.395 52.932 56.531 51.796 57.196 50.522 C 57.916 49.192 58.359 47.863 58.525 46.533 L 59.024 41.631 L 76.307 41.631 L 75.56 47.697 C 75.227 50.466 74.341 53.07 72.901 55.507 C 71.516 57.89 69.272 59.967 66.17 61.74 C 63.123 63.457 59.107 64.814 54.121 65.811 C 49.135 66.808 42.903 67.307 35.425 67.307 Z" fill="currentColor" fill-rule="nonzero"></path>
  <path d="M 140.404 26.424 L 143.396 1.246 L 160.679 1.246 L 152.702 66.061 L 135.502 66.061 L 139.158 36.313 L 102.014 36.313 L 98.358 66.061 L 81.158 66.061 L 89.135 1.246 L 106.335 1.246 L 103.261 26.424 L 140.404 26.424 Z" fill="currentColor" fill-rule="nonzero"></path>
  <path d="M 236.108 66.061 L 217.827 66.061 L 201.873 16.37 L 172.541 66.061 L 155.008 66.061 L 194.561 1.246 L 213.174 1.246 L 236.108 66.061 Z M 179.022 51.851 L 180.268 41.963 L 215.667 41.963 L 214.421 51.851 L 179.022 51.851 Z" fill="currentColor" fill-rule="nonzero"></path>
  <path d="M 253.959 66.061 L 237.922 66.061 L 245.816 1.246 L 261.437 1.246 L 282.211 45.702 L 313.787 1.246 L 329.326 1.246 L 321.432 66.061 L 305.395 66.061 L 310.63 24.264 L 284.289 62.487 L 275.979 62.487 L 258.945 24.264 L 253.959 66.061 Z" fill="currentColor" fill-rule="nonzero"></path>
  <path d="M 337.699 1.246 L 375.341 1.246 C 381.823 1.246 387.085 1.634 391.129 2.41 C 395.229 3.13 398.414 4.182 400.685 5.567 C 402.957 6.952 404.452 8.67 405.172 10.719 C 405.948 12.714 406.17 14.985 405.837 17.533 L 404.84 25.593 C 404.508 28.142 403.732 30.44 402.513 32.49 C 401.295 34.54 399.383 36.257 396.78 37.642 C 394.176 39.027 390.742 40.107 386.476 40.883 C 382.21 41.603 376.837 41.963 370.356 41.963 L 349.914 41.963 L 346.923 66.061 L 329.722 66.061 L 337.699 1.246 Z M 387.805 24.43 L 388.47 18.779 C 388.581 17.672 388.498 16.674 388.221 15.788 C 387.999 14.846 387.39 14.043 386.393 13.378 C 385.396 12.658 383.9 12.104 381.906 11.716 C 379.967 11.329 377.391 11.135 374.178 11.135 L 353.737 11.135 L 351.161 31.992 L 371.602 31.992 C 374.815 31.992 377.446 31.825 379.496 31.493 C 381.546 31.161 383.152 30.662 384.315 29.997 C 385.534 29.333 386.365 28.529 386.808 27.588 C 387.307 26.646 387.639 25.593 387.805 24.43 Z" fill="currentColor" fill-rule="nonzero"></path>
  <path d="M 406.653 66.061 L 414.63 1.246 L 431.831 1.246 L 423.854 66.061 L 406.653 66.061 Z" fill="currentColor" fill-rule="nonzero"></path>
  <path d="M 477.485 0 C 484.964 0 491.085 0.499 495.849 1.496 C 500.613 2.493 504.297 3.878 506.901 5.65 C 509.504 7.368 511.222 9.417 512.053 11.799 C 512.884 14.182 513.133 16.785 512.801 19.61 L 509.394 47.697 C 509.061 50.466 508.175 53.07 506.735 55.507 C 505.35 57.89 503.106 59.967 500.004 61.74 C 496.957 63.457 492.941 64.814 487.955 65.811 C 482.969 66.808 476.737 67.307 469.259 67.307 C 461.78 67.307 455.659 66.808 450.895 65.811 C 446.186 64.814 442.502 63.457 439.843 61.74 C 437.24 59.967 435.522 57.89 434.691 55.507 C 433.916 53.07 433.666 50.466 433.943 47.697 L 437.433 19.61 C 437.766 16.785 438.624 14.182 440.009 11.799 C 441.45 9.417 443.693 7.368 446.74 5.65 C 449.787 3.878 453.803 2.493 458.789 1.496 C 463.775 0.499 470.007 0 477.485 0 Z M 492.359 46.533 L 495.434 20.774 C 495.655 19.444 495.572 18.142 495.184 16.868 C 494.852 15.539 493.993 14.375 492.608 13.378 C 491.279 12.381 489.312 11.606 486.709 11.052 C 484.105 10.442 480.643 10.138 476.322 10.138 C 472.001 10.138 468.456 10.442 465.686 11.052 C 462.916 11.606 460.728 12.381 459.121 13.378 C 457.515 14.375 456.379 15.539 455.714 16.868 C 455.105 18.142 454.689 19.444 454.468 20.774 L 451.393 46.533 C 451.227 47.863 451.31 49.192 451.643 50.522 C 451.975 51.796 452.806 52.932 454.135 53.929 C 455.52 54.926 457.515 55.729 460.118 56.338 C 462.722 56.892 466.184 57.169 470.505 57.169 C 474.826 57.169 478.372 56.892 481.141 56.338 C 483.911 55.729 486.072 54.926 487.623 53.929 C 489.229 52.932 490.365 51.796 491.03 50.522 C 491.75 49.192 492.193 47.863 492.359 46.533 Z" fill="currentColor" fill-rule="nonzero"></path>
  <path d="M 530.198 66.061 L 514.161 66.061 L 522.055 1.246 L 537.427 1.246 L 573.74 45.785 L 578.892 1.246 L 594.929 1.246 L 586.952 66.061 L 571.662 66.061 L 535.433 21.688 L 530.198 66.061 Z" fill="currentColor" fill-rule="nonzero"></path>
</svg>