<svg xmlns="http://www.w3.org/2000/svg" width="653.511" height="66.808" viewBox="0 0 653.511 66.808" fill="none">
  <path d="M 7.977 0.997 L 34.484 0.997 C 40.8 0.997 45.896 1.496 49.774 2.493 C 53.652 3.49 56.615 4.847 58.665 6.565 C 60.77 8.226 62.1 10.165 62.654 12.381 C 63.263 14.597 63.429 16.951 63.152 19.444 L 59.662 47.364 C 59.385 49.857 58.665 52.211 57.502 54.427 C 56.394 56.643 54.593 58.61 52.101 60.327 C 49.608 61.989 46.284 63.318 42.129 64.316 C 38.03 65.313 32.823 65.811 26.507 65.811 L 0 65.811 L 7.977 0.997 Z M 55.092 47.115 L 58.416 19.694 C 58.637 17.976 58.527 16.259 58.083 14.542 C 57.696 12.769 56.643 11.19 54.926 9.805 C 53.264 8.365 50.743 7.202 47.364 6.315 C 44.04 5.429 39.581 4.986 33.986 4.986 L 12.049 4.986 L 5.069 61.823 L 27.006 61.823 C 32.656 61.823 37.254 61.38 40.8 60.493 C 44.345 59.607 47.143 58.471 49.192 57.086 C 51.242 55.646 52.682 54.067 53.513 52.35 C 54.344 50.577 54.87 48.832 55.092 47.115 Z" fill="currentColor" fill-rule="nonzero"></path>
  <path d="M 69.06 65.811 L 77.037 0.997 L 81.607 0.997 L 73.63 65.811 L 69.06 65.811 Z" fill="currentColor" fill-rule="nonzero"></path>
  <path d="M 152.649 18.696 L 151.985 24.762 L 147.331 24.762 L 147.996 19.029 C 148.273 17.256 148.19 15.483 147.747 13.711 C 147.359 11.883 146.307 10.276 144.589 8.891 C 142.927 7.451 140.435 6.288 137.111 5.401 C 133.787 4.459 129.3 3.989 123.649 3.989 C 118.054 3.989 113.484 4.459 109.939 5.401 C 106.393 6.288 103.596 7.451 101.546 8.891 C 99.496 10.276 98.056 11.883 97.225 13.711 C 96.394 15.483 95.868 17.256 95.646 19.029 L 92.156 47.78 C 91.935 49.552 92.018 51.353 92.406 53.181 C 92.793 54.954 93.818 56.56 95.48 58 C 97.197 59.385 99.718 60.549 103.042 61.49 C 106.366 62.377 110.825 62.82 116.42 62.82 C 122.015 62.82 126.585 62.377 130.131 61.49 C 133.732 60.549 136.529 59.385 138.523 58 C 140.573 56.56 142.013 54.954 142.844 53.181 C 143.731 51.353 144.285 49.552 144.506 47.78 L 145.753 37.476 L 119.827 37.476 L 120.242 33.653 L 150.821 33.653 L 149.076 48.112 C 148.799 50.549 148.079 52.904 146.916 55.175 C 145.808 57.446 144.008 59.441 141.515 61.158 C 139.022 62.875 135.698 64.26 131.543 65.313 C 127.444 66.31 122.264 66.808 116.005 66.808 C 109.689 66.808 104.593 66.31 100.715 65.313 C 96.837 64.26 93.874 62.875 91.824 61.158 C 89.774 59.441 88.472 57.446 87.918 55.175 C 87.364 52.904 87.226 50.549 87.503 48.112 L 91.076 18.696 C 91.353 16.204 92.046 13.849 93.153 11.633 C 94.317 9.362 96.117 7.368 98.555 5.65 C 101.047 3.933 104.344 2.576 108.443 1.579 C 112.598 0.526 117.833 0 124.148 0 C 130.463 0 135.56 0.526 139.437 1.579 C 143.315 2.576 146.279 3.933 148.329 5.65 C 150.378 7.368 151.68 9.362 152.234 11.633 C 152.788 13.849 152.926 16.204 152.649 18.696 Z" fill="currentColor" fill-rule="nonzero"></path>
  <path d="M 158.572 65.811 L 166.549 0.997 L 171.119 0.997 L 163.142 65.811 L 158.572 65.811 Z" fill="currentColor" fill-rule="nonzero"></path>
  <path d="M 177.181 0.997 L 234.683 0.997 L 234.185 4.986 L 207.76 4.986 L 200.282 65.811 L 195.712 65.811 L 203.107 4.986 L 176.683 4.986 L 177.181 0.997 Z" fill="currentColor" fill-rule="nonzero"></path>
  <path d="M 281.995 65.811 L 276.594 65.811 L 256.818 7.395 L 221.668 65.811 L 216.267 65.811 L 255.737 0.997 L 259.643 0.997 L 281.995 65.811 Z M 232.221 45.702 L 232.72 41.714 L 271.193 41.714 L 270.694 45.702 L 232.221 45.702 Z" fill="currentColor" fill-rule="nonzero"></path>
  <path d="M 300.397 0.997 L 292.918 61.823 L 335.962 61.823 L 335.463 65.811 L 287.85 65.811 L 295.827 0.997 L 300.397 0.997 Z" fill="currentColor" fill-rule="nonzero"></path>
  <path d="M 372.335 65.811 L 367.765 65.811 L 375.742 0.997 L 379.98 0.997 L 402.831 56.505 L 438.977 0.997 L 443.298 0.997 L 435.321 65.811 L 430.751 65.811 L 437.565 10.221 L 403.828 62.238 L 400.421 62.238 L 379.149 10.221 L 372.335 65.811 Z" fill="currentColor" fill-rule="nonzero"></path>
  <path d="M 498.58 65.811 L 447.477 65.811 L 455.454 0.997 L 505.061 0.997 L 504.646 4.986 L 459.525 4.986 L 456.451 30.08 L 498.414 30.08 L 497.915 34.069 L 455.952 34.069 L 452.545 61.823 L 499.079 61.823 L 498.58 65.811 Z" fill="currentColor" fill-rule="nonzero"></path>
  <path d="M 516.318 0.997 L 542.825 0.997 C 549.14 0.997 554.237 1.496 558.114 2.493 C 561.992 3.49 564.956 4.847 567.006 6.565 C 569.111 8.226 570.44 10.165 570.994 12.381 C 571.603 14.597 571.77 16.951 571.493 19.444 L 568.003 47.364 C 567.726 49.857 567.006 52.211 565.842 54.427 C 564.734 56.643 562.934 58.61 560.441 60.327 C 557.948 61.989 554.624 63.318 550.47 64.316 C 546.37 65.313 541.163 65.811 534.848 65.811 L 508.34 65.811 L 516.318 0.997 Z M 563.432 47.115 L 566.756 19.694 C 566.978 17.976 566.867 16.259 566.424 14.542 C 566.036 12.769 564.984 11.19 563.266 9.805 C 561.604 8.365 559.084 7.202 555.705 6.315 C 552.381 5.429 547.921 4.986 542.326 4.986 L 520.389 4.986 L 513.409 61.823 L 535.346 61.823 C 540.997 61.823 545.595 61.38 549.14 60.493 C 552.685 59.607 555.483 58.471 557.533 57.086 C 559.582 55.646 561.023 54.067 561.854 52.35 C 562.685 50.577 563.211 48.832 563.432 47.115 Z" fill="currentColor" fill-rule="nonzero"></path>
  <path d="M 577.4 65.811 L 585.377 0.997 L 589.948 0.997 L 581.97 65.811 L 577.4 65.811 Z" fill="currentColor" fill-rule="nonzero"></path>
  <path d="M 653.511 65.811 L 648.11 65.811 L 628.334 7.395 L 593.184 65.811 L 587.783 65.811 L 627.253 0.997 L 631.159 0.997 L 653.511 65.811 Z M 603.737 45.702 L 604.236 41.714 L 642.709 41.714 L 642.21 45.702 L 603.737 45.702 Z" fill="currentColor" fill-rule="nonzero"></path>
</svg>