<svg width="441" height="131" viewBox="0 0 441 131" fill="none" xmlns="http://www.w3.org/2000/svg">
<path d="M373.379 18.4875C377.714 19.6322 381.507 20.6338 385.3 21.6354C401.023 25.9459 415.49 31.5892 426.638 39.764C441.948 50.7025 444.299 63.5292 433.064 76.6517C427.328 83.459 419.11 88.8979 409.524 93.7375C390.6 103.086 369.091 109.295 346.451 114.412C313.275 121.821 279.132 126.357 244.324 128.658C206.597 131.219 168.996 131.355 131.252 129.076C103.957 127.575 76.8439 124.616 51.1392 118.383C41.1292 115.977 31.0721 112.767 22.3084 108.867C-0.437336 98.5016 -6.23729 81.4354 6.97688 65.6651C13.4556 57.8649 22.938 51.2542 33.5323 45.4127C58.8579 31.4932 88.4594 22.2695 120.056 15.2372C163.501 5.54756 208.026 0.661191 253.871 0.0861122C284.257 -0.291301 314.709 0.458318 344.294 4.62487C353.164 5.77824 361.548 7.75454 370.18 9.39988C372.338 9.81122 374.249 10.5535 376.159 11.2958C381.083 13.3886 380.93 15.3296 375.728 17.6019C375.214 17.9418 374.425 18.1297 373.379 18.4875ZM242.097 8.5485C242.087 8.38749 242.078 8.22649 242.068 8.06549C240.471 8.11924 238.598 8.02096 237.001 8.07472C200.007 9.48115 163.724 13.9288 128.429 21.5696C97.8686 28.0831 68.7713 36.8059 44.2067 50.0544C34.3827 55.386 25.3856 61.1738 19.1354 68.321C7.64343 81.6135 12.4563 95.4865 32.1512 103.858C39.5368 106.997 47.6833 109.465 56.0678 111.441C78.797 116.968 102.688 119.552 126.798 121.321C161.622 123.86 196.552 123.652 231.398 121.995C272.357 119.971 312.595 114.745 350.991 105.387C369.133 100.905 386.43 95.644 401.731 88.1922C411.06 83.5225 419.011 78.0926 423.949 71.3122C429.373 63.7089 429.462 56.1238 422.117 49.1115C419.295 46.464 415.674 43.8434 412.081 41.7059C400.2 34.6849 386.056 29.9987 370.38 26.4932C350.921 22.1472 331.004 19.1071 310.365 17.382C283.013 14.9148 255.499 14.2276 228.277 18.5316C226.956 18.7374 225.111 19.1221 224.027 18.836C222.126 18.2547 219.683 17.5303 219.094 16.5822C218.505 15.6341 220.008 13.9703 221.292 13.1204C222.842 12.2617 225.219 11.859 227.33 11.4653C232.322 10.1681 237.076 9.36276 242.097 8.5485ZM327.586 10.8335C340.781 12.9705 353.701 14.9555 366.896 17.0925C354.643 12.8266 341.486 11.3336 327.586 10.8335Z" fill="#FF9900"/>
</svg>