<svg xmlns="http://www.w3.org/2000/svg" width="551.559" height="161.276" viewBox="0 0 551.559 161.276" fill="#FF9900">
  <path d="M 471.254 28.251 C 476.587 29.865 481.253 31.278 485.919 32.69 C 505.249 38.744 522.913 46.413 536.244 57.108 C 554.574 71.435 556.574 87.579 541.576 103.521 C 533.911 111.795 523.246 118.252 510.915 123.903 C 486.585 134.8 459.256 141.661 430.594 147.109 C 388.601 154.98 345.608 159.217 301.948 160.63 C 254.623 162.244 207.63 160.832 160.638 156.392 C 126.644 153.365 92.982 148.522 61.321 139.643 C 48.989 136.212 36.658 131.773 25.993 126.526 C -1.669 112.602 -7.668 91.01 9.996 71.839 C 18.661 62.355 30.992 54.484 44.657 47.623 C 77.318 31.278 114.979 20.986 154.972 13.52 C 209.963 3.228 265.954 -1.01 323.278 0.201 C 361.272 1.008 399.266 3.228 435.927 9.685 C 446.925 11.502 457.257 14.327 467.922 16.748 C 470.588 17.354 472.921 18.363 475.254 19.372 C 481.253 22.197 480.919 24.618 474.254 27.242 C 473.587 27.645 472.587 27.847 471.254 28.251 Z M 307.948 10.291 C 307.948 10.089 307.948 9.887 307.948 9.685 C 305.948 9.685 303.615 9.484 301.615 9.484 C 255.289 9.685 209.63 13.721 164.971 21.793 C 126.31 28.654 89.316 38.341 57.655 53.879 C 44.99 60.135 33.325 66.996 24.993 75.673 C 9.662 91.817 14.662 109.373 38.658 120.674 C 47.656 124.912 57.655 128.342 67.986 131.167 C 95.982 139.038 125.644 143.275 155.639 146.504 C 198.965 151.145 242.625 152.356 286.284 151.751 C 337.609 150.944 388.268 146.101 436.927 136.011 C 459.923 131.168 481.919 125.315 501.583 116.638 C 513.581 111.19 523.913 104.732 530.578 96.458 C 537.91 87.176 538.577 77.691 529.912 68.61 C 526.579 65.18 522.246 61.749 517.913 58.924 C 503.582 49.641 486.252 43.184 466.922 38.139 C 442.926 31.883 418.263 27.242 392.6 24.215 C 358.606 19.977 324.278 17.959 289.95 22.197 C 288.284 22.399 285.951 22.802 284.618 22.399 C 282.285 21.592 279.285 20.583 278.619 19.372 C 277.952 18.161 279.952 16.143 281.618 15.134 C 283.618 14.125 286.618 13.721 289.284 13.318 C 295.616 11.905 301.615 11.098 307.948 10.291 Z M 414.597 16.748 C 430.928 19.977 446.925 23.004 463.256 26.233 C 448.258 20.381 431.927 17.959 414.597 16.748 Z" fill="#FF9900" fill-rule="nonzero"></path>
</svg>