<svg width="389" height="92" viewBox="0 0 389 92" fill="none" xmlns="http://www.w3.org/2000/svg">
<path d="M20.24 73.968C15.9467 73.968 12.4507 73.6307 9.752 72.956C7.05333 72.2813 4.968 71.3307 3.496 70.104C2.024 68.8773 1.07333 67.4053 0.643998 65.688C0.214665 63.9093 0.122665 61.9467 0.367998 59.8L5.98 14.168C6.22533 12.0213 6.77733 10.0893 7.636 8.37201C8.49466 6.59334 9.81333 5.09068 11.592 3.86401C13.3707 2.63734 15.7013 1.68668 18.584 1.01201C21.4667 0.337343 25.0547 8.58307e-06 29.348 8.58307e-06C33.6413 8.58307e-06 37.1373 0.337343 39.836 1.01201C42.5347 1.68668 44.62 2.63734 46.092 3.86401C47.6253 5.09068 48.6067 6.59334 49.036 8.37201C49.4653 10.0893 49.5267 12.0213 49.22 14.168L47.656 27.14H36.708L38.272 14.72C38.3947 13.984 38.364 13.248 38.18 12.512C37.996 11.7147 37.536 11.04 36.8 10.488C36.064 9.87468 35.0213 9.41468 33.672 9.10801C32.3227 8.74001 30.544 8.55601 28.336 8.55601C26.0667 8.55601 24.196 8.74001 22.724 9.10801C21.3133 9.41468 20.1787 9.87468 19.32 10.488C18.4613 11.04 17.848 11.7147 17.48 12.512C17.1733 13.248 16.9587 13.984 16.836 14.72L11.408 59.248C11.2853 59.984 11.316 60.7507 11.5 61.548C11.684 62.284 12.144 62.9587 12.88 63.572C13.616 64.124 14.6587 64.584 16.008 64.952C17.3573 65.2587 19.136 65.412 21.344 65.412C23.552 65.412 25.3613 65.2587 26.772 64.952C28.244 64.584 29.4093 64.124 30.268 63.572C31.1267 62.9587 31.74 62.284 32.108 61.548C32.476 60.7507 32.7213 59.984 32.844 59.248L34.316 46.828H45.264L43.608 59.8C43.3627 61.9467 42.8107 63.9093 41.952 65.688C41.0933 67.4053 39.7747 68.8773 37.996 70.104C36.2173 71.3307 33.8867 72.2813 31.004 72.956C28.1213 73.6307 24.5333 73.968 20.24 73.968ZM74.3051 20.516C77.1878 20.516 79.5798 20.8227 81.4811 21.436C83.3824 21.988 84.8544 22.816 85.8971 23.92C87.0011 25.024 87.7064 26.3733 88.0131 27.968C88.3198 29.5627 88.3198 31.4027 88.0131 33.488L83.2291 72.864H72.2811L77.0651 34.316C77.1264 33.3347 77.0651 32.5067 76.8811 31.832C76.6971 31.096 76.2984 30.5133 75.6851 30.084C75.1331 29.5933 74.3664 29.2253 73.3851 28.98C72.4038 28.6733 71.1771 28.52 69.7051 28.52C68.2331 28.52 66.9451 28.6733 65.8411 28.98C64.7371 29.2253 63.7864 29.5933 62.9891 30.084C62.2531 30.5747 61.6704 31.188 61.2411 31.924C60.8118 32.66 60.5358 33.5187 60.4131 34.5L55.7211 72.864H44.7731L53.6051 1.10401H64.5531L61.7011 24.104C62.4371 23.4907 63.2344 22.9693 64.0931 22.54C64.9518 22.1107 65.9024 21.7427 66.9451 21.436C67.9878 21.1293 69.1224 20.9147 70.3491 20.792C71.5758 20.608 72.8944 20.516 74.3051 20.516ZM111.815 20.516C115.679 20.516 118.807 20.8533 121.199 21.528C123.591 22.2027 125.401 23.1227 126.627 24.288C127.915 25.4533 128.713 26.864 129.019 28.52C129.387 30.1147 129.418 31.924 129.111 33.948L124.327 72.864H115.679L115.311 69.828C114.698 70.5027 113.931 71.0853 113.011 71.576C112.091 72.0667 111.018 72.496 109.791 72.864C108.626 73.1707 107.277 73.416 105.743 73.6C104.21 73.8453 102.523 73.968 100.683 73.968C97.6779 73.968 95.2245 73.692 93.3232 73.14C91.4832 72.6493 90.0725 71.9747 89.0912 71.116C88.1099 70.196 87.4659 69.1227 87.1592 67.896C86.9139 66.608 86.8832 65.1973 87.0672 63.664L88.3552 53.36C88.4779 51.8267 88.8152 50.4467 89.3672 49.22C89.9805 47.932 90.9005 46.8587 92.1272 46C93.3539 45.08 94.9792 44.3747 97.0032 43.884C99.0272 43.3933 101.511 43.148 104.455 43.148C107.583 43.148 110.129 43.3933 112.091 43.884C114.115 44.3133 115.679 44.9267 116.783 45.724L118.255 33.764C118.317 33.028 118.317 32.3533 118.255 31.74C118.194 31.1267 117.918 30.5747 117.427 30.084C116.937 29.5933 116.17 29.1947 115.127 28.888C114.085 28.5813 112.643 28.428 110.803 28.428C109.209 28.428 107.89 28.52 106.847 28.704C105.805 28.888 104.977 29.164 104.363 29.532C103.75 29.8387 103.29 30.2373 102.983 30.728C102.738 31.1573 102.585 31.7093 102.523 32.384L101.603 39.744H90.8392L91.8512 32.108C92.0352 30.2067 92.4952 28.5507 93.2312 27.14C94.0285 25.7293 95.1939 24.5333 96.7272 23.552C98.2605 22.5707 100.254 21.8347 102.707 21.344C105.161 20.792 108.197 20.516 111.815 20.516ZM105.283 66.424C107.001 66.424 108.442 66.3627 109.607 66.24C110.834 66.056 111.785 65.8107 112.459 65.504C113.195 65.1973 113.717 64.86 114.023 64.492C114.391 64.0627 114.606 63.6333 114.667 63.204L115.771 53.82C115.833 53.3907 115.741 52.992 115.495 52.624C115.311 52.1947 114.882 51.8573 114.207 51.612C113.594 51.3053 112.705 51.06 111.539 50.876C110.435 50.692 108.963 50.6 107.123 50.6C105.59 50.6 104.302 50.692 103.259 50.876C102.217 51.06 101.419 51.3053 100.867 51.612C100.315 51.8573 99.9165 52.1947 99.6712 52.624C99.4259 52.992 99.2726 53.3907 99.2112 53.82L98.0152 63.204C97.9539 63.6333 97.9845 64.0627 98.1072 64.492C98.2912 64.86 98.6285 65.1973 99.1192 65.504C99.6712 65.8107 100.438 66.056 101.419 66.24C102.401 66.3627 103.689 66.424 105.283 66.424ZM180.798 20.516C183.374 20.516 185.521 20.792 187.238 21.344C189.017 21.896 190.397 22.6933 191.378 23.736C192.421 24.7787 193.065 26.128 193.31 27.784C193.617 29.3787 193.647 31.2187 193.402 33.304L188.618 72.864H177.67L182.454 34.132C182.577 33.1507 182.515 32.292 182.27 31.556C182.086 30.82 181.718 30.2373 181.166 29.808C180.675 29.3787 180.001 29.072 179.142 28.888C178.345 28.6427 177.363 28.52 176.198 28.52C175.094 28.52 174.051 28.6427 173.07 28.888C172.089 29.1333 171.261 29.5013 170.586 29.992C169.911 30.4213 169.359 31.004 168.93 31.74C168.501 32.4147 168.225 33.2427 168.102 34.224L163.41 72.864H152.738L157.522 34.132C157.583 33.1507 157.522 32.292 157.338 31.556C157.154 30.82 156.786 30.2373 156.234 29.808C155.743 29.3787 155.069 29.072 154.21 28.888C153.413 28.6427 152.462 28.52 151.358 28.52C150.131 28.52 149.058 28.6427 148.138 28.888C147.218 29.1333 146.421 29.5013 145.746 29.992C145.071 30.4213 144.489 31.004 143.998 31.74C143.569 32.4147 143.323 33.2427 143.262 34.224L138.478 72.864H127.53L133.878 21.62H142.618L142.802 25.392C143.477 24.5947 144.274 23.8893 145.194 23.276C146.114 22.6627 147.095 22.172 148.138 21.804C149.242 21.3747 150.438 21.068 151.726 20.884C153.014 20.6387 154.363 20.516 155.774 20.516C157.307 20.516 158.718 20.6387 160.006 20.884C161.294 21.068 162.429 21.3747 163.41 21.804C164.391 22.2333 165.219 22.7547 165.894 23.368C166.569 23.9813 167.121 24.7173 167.55 25.576C168.225 24.7173 169.022 23.9813 169.942 23.368C170.862 22.6933 171.874 22.172 172.978 21.804C174.082 21.3747 175.278 21.068 176.566 20.884C177.854 20.6387 179.265 20.516 180.798 20.516ZM200.377 91.264H189.429L198.077 21.62H206.817L207.001 25.392C207.614 24.656 208.35 23.9813 209.209 23.368C210.067 22.7547 211.049 22.2333 212.153 21.804C213.318 21.3747 214.637 21.068 216.109 20.884C217.581 20.6387 219.206 20.516 220.985 20.516C224.235 20.516 226.842 20.8533 228.805 21.528C230.829 22.1413 232.331 23 233.313 24.104C234.294 25.208 234.877 26.5267 235.061 28.06C235.306 29.5933 235.306 31.28 235.061 33.12L231.657 61.456C231.411 63.2347 230.982 64.8907 230.369 66.424C229.817 67.9573 228.897 69.276 227.609 70.38C226.382 71.484 224.695 72.3427 222.549 72.956C220.402 73.6307 217.673 73.968 214.361 73.968C212.889 73.968 211.539 73.876 210.313 73.692C209.147 73.5693 208.105 73.3547 207.185 73.048C206.265 72.8027 205.437 72.496 204.701 72.128C204.026 71.6987 203.443 71.2387 202.953 70.748L200.377 91.264ZM211.785 65.964C213.686 65.964 215.189 65.8413 216.293 65.596C217.397 65.2893 218.255 64.8907 218.869 64.4C219.543 63.9093 220.003 63.3573 220.249 62.744C220.555 62.1307 220.709 61.456 220.709 60.72L224.113 33.764C224.174 33.028 224.143 32.3533 224.021 31.74C223.959 31.1267 223.653 30.6053 223.101 30.176C222.61 29.6853 221.813 29.2867 220.709 28.98C219.666 28.6733 218.225 28.52 216.385 28.52C214.606 28.52 213.134 28.6733 211.969 28.98C210.865 29.2867 209.975 29.6853 209.301 30.176C208.687 30.6053 208.258 31.1267 208.013 31.74C207.767 32.3533 207.583 33.028 207.461 33.764L204.149 60.72C204.087 61.456 204.087 62.1307 204.149 62.744C204.271 63.3573 204.578 63.9093 205.069 64.4C205.621 64.8907 206.418 65.2893 207.461 65.596C208.503 65.8413 209.945 65.964 211.785 65.964ZM258.135 20.516C262.122 20.516 265.311 20.8533 267.703 21.528C270.157 22.1413 271.997 23.0307 273.223 24.196C274.511 25.3613 275.309 26.772 275.615 28.428C275.983 30.0227 276.045 31.832 275.799 33.856L272.487 60.72C272.242 62.6827 271.751 64.492 271.015 66.148C270.279 67.7427 269.114 69.1227 267.519 70.288C265.986 71.4533 263.931 72.3427 261.355 72.956C258.841 73.6307 255.59 73.968 251.603 73.968C247.678 73.968 244.489 73.6307 242.035 72.956C239.643 72.3427 237.803 71.4533 236.515 70.288C235.289 69.1227 234.491 67.7427 234.123 66.148C233.817 64.492 233.786 62.6827 234.031 60.72L237.251 33.856C237.558 31.832 238.049 30.0227 238.723 28.428C239.459 26.772 240.594 25.3613 242.127 24.196C243.722 23.0307 245.807 22.1413 248.383 21.528C250.959 20.8533 254.21 20.516 258.135 20.516ZM261.539 60.812L264.851 33.672C264.913 32.936 264.913 32.2613 264.851 31.648C264.79 31.0347 264.514 30.5133 264.023 30.084C263.533 29.5933 262.735 29.1947 261.631 28.888C260.589 28.5813 259.117 28.428 257.215 28.428C255.314 28.428 253.781 28.5813 252.615 28.888C251.511 29.1947 250.653 29.5933 250.039 30.084C249.426 30.5133 248.997 31.0347 248.751 31.648C248.506 32.2613 248.353 32.936 248.291 33.672L244.887 60.812C244.826 61.548 244.826 62.2533 244.887 62.928C245.01 63.5413 245.317 64.0933 245.807 64.584C246.298 65.0133 247.065 65.3813 248.107 65.688C249.211 65.9333 250.714 66.056 252.615 66.056C254.517 66.056 256.019 65.9333 257.123 65.688C258.289 65.3813 259.178 65.0133 259.791 64.584C260.405 64.0933 260.803 63.5413 260.987 62.928C261.233 62.2533 261.417 61.548 261.539 60.812ZM288.855 21.62V28.704C289.714 27.4773 290.695 26.3733 291.799 25.392C292.964 24.3493 294.222 23.4907 295.571 22.816C296.92 22.08 298.392 21.528 299.987 21.16C301.582 20.7307 303.268 20.516 305.047 20.516L303.667 32.384H298.239C296.644 32.384 295.295 32.5067 294.191 32.752C293.087 32.9973 292.167 33.3653 291.431 33.856C290.695 34.3467 290.112 34.9907 289.683 35.788C289.315 36.524 289.07 37.4133 288.947 38.456L284.715 72.864H273.767L280.115 21.62H288.855ZM333.685 29.532H322.277L318.413 60.26C318.352 60.996 318.352 61.6707 318.413 62.284C318.475 62.836 318.659 63.3267 318.965 63.756C319.272 64.124 319.732 64.4307 320.345 64.676C320.959 64.9213 321.787 65.044 322.829 65.044H329.361L328.349 72.864H320.621C317.739 72.864 315.377 72.588 313.537 72.036C311.697 71.4227 310.287 70.564 309.305 69.46C308.324 68.356 307.711 67.0373 307.465 65.504C307.281 63.9093 307.312 62.1307 307.557 60.168L311.329 29.532H306.361L307.281 21.62H312.249L313.445 11.868L324.945 7.45201L323.197 21.62H334.697L333.685 29.532ZM352.87 20.516C356.734 20.516 359.862 20.8533 362.254 21.528C364.646 22.2027 366.455 23.1227 367.682 24.288C368.97 25.4533 369.767 26.864 370.074 28.52C370.442 30.1147 370.472 31.924 370.166 33.948L365.382 72.864H356.734L356.366 69.828C355.752 70.5027 354.986 71.0853 354.066 71.576C353.146 72.0667 352.072 72.496 350.846 72.864C349.68 73.1707 348.331 73.416 346.798 73.6C345.264 73.8453 343.578 73.968 341.738 73.968C338.732 73.968 336.279 73.692 334.378 73.14C332.538 72.6493 331.127 71.9747 330.146 71.116C329.164 70.196 328.52 69.1227 328.214 67.896C327.968 66.608 327.938 65.1973 328.122 63.664L329.41 53.36C329.532 51.8267 329.87 50.4467 330.422 49.22C331.035 47.932 331.955 46.8587 333.182 46C334.408 45.08 336.034 44.3747 338.058 43.884C340.082 43.3933 342.566 43.148 345.51 43.148C348.638 43.148 351.183 43.3933 353.146 43.884C355.17 44.3133 356.734 44.9267 357.838 45.724L359.31 33.764C359.371 33.028 359.371 32.3533 359.31 31.74C359.248 31.1267 358.972 30.5747 358.482 30.084C357.991 29.5933 357.224 29.1947 356.182 28.888C355.139 28.5813 353.698 28.428 351.858 28.428C350.263 28.428 348.944 28.52 347.902 28.704C346.859 28.888 346.031 29.164 345.418 29.532C344.804 29.8387 344.344 30.2373 344.038 30.728C343.792 31.1573 343.639 31.7093 343.578 32.384L342.658 39.744H331.894L332.906 32.108C333.09 30.2067 333.55 28.5507 334.286 27.14C335.083 25.7293 336.248 24.5333 337.782 23.552C339.315 22.5707 341.308 21.8347 343.762 21.344C346.215 20.792 349.251 20.516 352.87 20.516ZM346.338 66.424C348.055 66.424 349.496 66.3627 350.662 66.24C351.888 66.056 352.839 65.8107 353.514 65.504C354.25 65.1973 354.771 64.86 355.078 64.492C355.446 64.0627 355.66 63.6333 355.722 63.204L356.826 53.82C356.887 53.3907 356.795 52.992 356.55 52.624C356.366 52.1947 355.936 51.8573 355.262 51.612C354.648 51.3053 353.759 51.06 352.594 50.876C351.49 50.692 350.018 50.6 348.178 50.6C346.644 50.6 345.356 50.692 344.314 50.876C343.271 51.06 342.474 51.3053 341.922 51.612C341.37 51.8573 340.971 52.1947 340.726 52.624C340.48 52.992 340.327 53.3907 340.266 53.82L339.07 63.204C339.008 63.6333 339.039 64.0627 339.162 64.492C339.346 64.86 339.683 65.1973 340.174 65.504C340.726 65.8107 341.492 66.056 342.474 66.24C343.455 66.3627 344.743 66.424 346.338 66.424ZM368.584 72.864L377.416 1.10401H388.364L379.532 72.864H368.584Z" fill="white"/>
</svg>
